<svg id="Capa_1" data-name="Capa 1" xmlns="http://www.w3.org/2000/svg" xmlns:xlink="http://www.w3.org/1999/xlink" viewBox="0 0 12.8 19.55"><defs><style>.cls-1,.cls-2,.cls-3{fill:#fff;stroke:#000;stroke-miterlimit:10;}.cls-1{stroke-width:0.49px;}.cls-2{stroke-width:0.5px;}.cls-3{stroke-width:0.25px;}.cls-4{fill:url(#Degradado_sin_nombre_13);}.cls-5{fill:url(#Degradado_sin_nombre_13-2);}.cls-6{fill:url(#Degradado_sin_nombre_13-3);}.cls-7{fill:url(#Degradado_sin_nombre_13-4);}.cls-8{fill:url(#Degradado_sin_nombre_13-5);}.cls-9{fill:url(#Degradado_sin_nombre_13-6);}</style><linearGradient id="Degradado_sin_nombre_13" x1="12.66" y1="18.31" x2="12.72" y2="1.75" gradientUnits="userSpaceOnUse"><stop offset="0" stop-color="#2da2b5"/><stop offset="0.33" stop-color="#758bf7"/><stop offset="0.64" stop-color="#f558a7"/><stop offset="1" stop-color="#ed3f4b"/></linearGradient><linearGradient id="Degradado_sin_nombre_13-2" x1="13.64" y1="18.32" x2="13.71" y2="1.75" xlink:href="#Degradado_sin_nombre_13"/><linearGradient id="Degradado_sin_nombre_13-3" x1="12.63" y1="18.31" x2="12.69" y2="1.75" xlink:href="#Degradado_sin_nombre_13"/><linearGradient id="Degradado_sin_nombre_13-4" x1="13.05" y1="18.31" x2="13.12" y2="1.75" xlink:href="#Degradado_sin_nombre_13"/><linearGradient id="Degradado_sin_nombre_13-5" x1="13.04" y1="18.31" x2="13.1" y2="1.75" xlink:href="#Degradado_sin_nombre_13"/><linearGradient id="Degradado_sin_nombre_13-6" x1="13.03" y1="18.31" x2="13.09" y2="1.75" xlink:href="#Degradado_sin_nombre_13"/></defs><title>logo</title><rect class="cls-1" x="0.24" y="0.24" width="12.31" height="19.06" rx="1.01" ry="1.01"/><rect class="cls-2" x="1.56" y="1.45" width="3.71" height="3.71" rx="0.94" ry="0.94"/><circle class="cls-3" cx="2.78" cy="2.68" r="0.63"/><circle class="cls-3" cx="4.03" cy="3.93" r="0.63"/><path class="cls-4" d="M14.36,16.86l-3,1.14v0l.23,0h2.78v.37H11v-.59l2.83-1.08v0L11,15.58V15h3.4v.39h-3v0l3,1.16Z" transform="translate(-4.44 -0.19)"/><path class="cls-5" d="M11.81,14.53v-.41l1.48-.56.25-.09.23-.07.21-.05v0l-.31-.09-.39-.13-1.48-.53v-.42l2.92,1.11a1.91,1.91,0,0,1,.41.21.84.84,0,0,1,.27.28.81.81,0,0,1,.09.41,1.39,1.39,0,0,1,0,.19,1.44,1.44,0,0,1,0,.14h-.31s0-.08,0-.12a1.28,1.28,0,0,0,0-.15.53.53,0,0,0-.05-.25.51.51,0,0,0-.16-.18,1,1,0,0,0-.25-.13l-.36-.14Z" transform="translate(-4.44 -0.19)"/><path class="cls-6" d="M11.26,10.23a1.27,1.27,0,0,0,.1.51,1,1,0,0,0,.28.38,1.26,1.26,0,0,0,.44.24,1.86,1.86,0,0,0,.58.08,1.88,1.88,0,0,0,.74-.13,1.05,1.05,0,0,0,.49-.4,1.21,1.21,0,0,0,.17-.67,2.3,2.3,0,0,0,0-.43c0-.13-.06-.26-.1-.39h.34a2,2,0,0,1,.1.39,3,3,0,0,1,0,.49,1.62,1.62,0,0,1-.22.87,1.32,1.32,0,0,1-.61.52,2.29,2.29,0,0,1-.93.17,2.21,2.21,0,0,1-.71-.11,1.57,1.57,0,0,1-.55-.32,1.4,1.4,0,0,1-.36-.51,1.79,1.79,0,0,1-.13-.7,2.37,2.37,0,0,1,.05-.5,1.79,1.79,0,0,1,.15-.43l.33.16a2.52,2.52,0,0,0-.13.36A1.56,1.56,0,0,0,11.26,10.23Z" transform="translate(-4.44 -0.19)"/><path class="cls-7" d="M11.77,7.79a1,1,0,0,1,.2-.68.85.85,0,0,1,.65-.22h1.73v.28L14,7.25v0a1.37,1.37,0,0,1,.23.22.82.82,0,0,1,.14.27,1.28,1.28,0,0,1,0,.37,1,1,0,0,1-.08.41.63.63,0,0,1-.25.28.77.77,0,0,1-.42.1.67.67,0,0,1-.59-.3,1.76,1.76,0,0,1-.22-.92l0-.44h-.16a.62.62,0,0,0-.46.14.57.57,0,0,0-.13.4,1.26,1.26,0,0,0,.06.38,2.63,2.63,0,0,0,.14.34L12,8.66a2.09,2.09,0,0,1-.15-.4A1.72,1.72,0,0,1,11.77,7.79Zm1.33-.52,0,.39a1.32,1.32,0,0,0,.16.67.45.45,0,0,0,.39.2A.39.39,0,0,0,14,8.4.55.55,0,0,0,14.1,8a.81.81,0,0,0-.19-.56.71.71,0,0,0-.56-.22Z" transform="translate(-4.44 -0.19)"/><path class="cls-8" d="M13.67,4.45a.68.68,0,0,1,.41.12.74.74,0,0,1,.25.35,1.56,1.56,0,0,1,.08.54,2.28,2.28,0,0,1,0,.46,1.34,1.34,0,0,1-.12.34h-.36A2.36,2.36,0,0,0,14,5.89a1.57,1.57,0,0,0,.06-.44A.84.84,0,0,0,14,5a.34.34,0,0,0-.29-.15.3.3,0,0,0-.18.06.6.6,0,0,0-.16.2,3.16,3.16,0,0,0-.17.39,4.12,4.12,0,0,1-.18.42.77.77,0,0,1-.22.27.57.57,0,0,1-.34.1.56.56,0,0,1-.5-.26,1.23,1.23,0,0,1-.17-.69,2,2,0,0,1,0-.43,2.08,2.08,0,0,1,.12-.38l.31.13a2.42,2.42,0,0,0-.11.34,1.48,1.48,0,0,0,0,.37.79.79,0,0,0,.09.41.27.27,0,0,0,.24.14.29.29,0,0,0,.2-.07.63.63,0,0,0,.14-.21q.07-.15.16-.39a3.37,3.37,0,0,1,.18-.41.76.76,0,0,1,.23-.27A.58.58,0,0,1,13.67,4.45Z" transform="translate(-4.44 -0.19)"/><path class="cls-9" d="M11.77,2.85a1,1,0,0,1,.14-.56.94.94,0,0,1,.4-.36,1.39,1.39,0,0,1,.61-.12h.24V3.57a1,1,0,0,0,.68-.22.79.79,0,0,0,.24-.61,1.87,1.87,0,0,0,0-.43,2.31,2.31,0,0,0-.13-.39h.34a1.92,1.92,0,0,1,.13.38,2.21,2.21,0,0,1,0,.45,1.32,1.32,0,0,1-.15.64,1,1,0,0,1-.44.42,1.53,1.53,0,0,1-.71.15,1.69,1.69,0,0,1-.71-.14,1,1,0,0,1-.63-1Zm.32,0a.63.63,0,0,0,.2.49,1,1,0,0,0,.56.22V2.21a1.12,1.12,0,0,0-.4.07.58.58,0,0,0-.27.21A.62.62,0,0,0,12.08,2.85Z" transform="translate(-4.44 -0.19)"/></svg>